<svg width="12" height="9" viewBox="0 0 12 9" fill="none" xmlns="http://www.w3.org/2000/svg">
<path d="M4.61542 6.39099L1.55542 3.08599C1.39357 2.91216 1.16956 2.80935 0.932223 2.79998C0.694888 2.79062 0.463473 2.87545 0.288423 3.03599C0.202076 3.11519 0.132216 3.21065 0.0828515 3.31691C0.0334866 3.42317 0.00558826 3.53813 0.000756993 3.65519C-0.00407428 3.77226 0.0142566 3.88912 0.054698 3.99909C0.0951395 4.10905 0.156895 4.20995 0.236423 4.29599L4.59142 8.99999L11.7524 1.50699C11.8333 1.42237 11.8967 1.32261 11.939 1.21343C11.9813 1.10426 12.0017 0.987812 11.9989 0.870766C11.9961 0.753719 11.9702 0.638372 11.9228 0.531334C11.8754 0.424296 11.8073 0.327669 11.7224 0.246991C11.55 0.0830431 11.3196 -0.00586022 11.0817 -0.000236868C10.8439 0.00538648 10.6179 0.105078 10.4534 0.276991L4.61542 6.39099Z" fill="#2F3747"/>
</svg>
