<svg width="20" height="20" viewBox="0 0 20 20" fill="none" xmlns="http://www.w3.org/2000/svg">
<path d="M6.66667 4.16667H8.33333H13.1626C14.0913 4.16667 14.428 4.26336 14.7675 4.44493C15.1071 4.6265 15.3735 4.89295 15.5551 5.23245C15.7366 5.57196 15.8333 5.90872 15.8333 6.83738V13.3333C15.8333 13.7936 16.2064 14.1667 16.6667 14.1667C17.1269 14.1667 17.5 13.7936 17.5 13.3333V6.77314C17.5 5.28728 17.3453 4.74847 17.0548 4.20526C16.7643 3.66205 16.338 3.23573 15.7947 2.94522C15.2515 2.65471 14.7127 2.5 13.2269 2.5H8.33333H6.66667C6.20643 2.5 5.83333 2.8731 5.83333 3.33333C5.83333 3.79357 6.20643 4.16667 6.66667 4.16667ZM5.17071 5.83333C4.43572 5.83333 4.01041 5.87381 3.56579 6.1116C3.22628 6.29317 2.95983 6.55961 2.77826 6.89912C2.54048 7.34374 2.5 7.76906 2.5 8.50405V14.8293C2.5 15.5643 2.54048 15.9896 2.77826 16.4342C2.95983 16.7737 3.22628 17.0402 3.56579 17.2217C4.01041 17.4595 4.43572 17.5 5.17071 17.5H11.496C12.2309 17.5 12.6563 17.4595 13.1009 17.2217C13.4404 17.0402 13.7068 16.7737 13.8884 16.4342C14.1262 15.9896 14.1667 15.5643 14.1667 14.8293V8.50405C14.1667 7.76906 14.1262 7.34374 13.8884 6.89912C13.7068 6.55961 13.4404 6.29317 13.1009 6.1116C12.6563 5.87381 12.2309 5.83333 11.496 5.83333H5.17071ZM4.35178 7.58128C4.3937 7.55887 4.427 7.54395 4.51593 7.53009C4.63089 7.51218 4.8182 7.5 5.17071 7.5H11.496C11.8485 7.5 12.0358 7.51218 12.1507 7.53009C12.2397 7.54395 12.273 7.55887 12.3149 7.58128C12.3639 7.60752 12.3925 7.63606 12.4187 7.68512C12.4411 7.72704 12.456 7.76033 12.4699 7.84927C12.4878 7.96422 12.5 8.15154 12.5 8.50405V14.8293C12.5 15.1818 12.4878 15.3691 12.4699 15.4841C12.456 15.573 12.4411 15.6063 12.4187 15.6482C12.3925 15.6973 12.3639 15.7258 12.3149 15.752C12.273 15.7745 12.2397 15.7894 12.1507 15.8032C12.0358 15.8211 11.8485 15.8333 11.496 15.8333H5.17071C4.8182 15.8333 4.63089 15.8211 4.51593 15.8032C4.427 15.7894 4.3937 15.7745 4.35178 15.752C4.30273 15.7258 4.27419 15.6973 4.24795 15.6482C4.22553 15.6063 4.21062 15.573 4.19676 15.4841C4.17885 15.3691 4.16667 15.1818 4.16667 14.8293V8.50405C4.16667 8.15154 4.17885 7.96422 4.19676 7.84927C4.21062 7.76034 4.22553 7.72704 4.24795 7.68512C4.27419 7.63606 4.30273 7.60752 4.35178 7.58128Z" fill="#475A80" fill-opacity="0.5"/>
</svg>
