<svg width="180" height="82" viewBox="0 0 180 82" fill="none" xmlns="http://www.w3.org/2000/svg">
<rect x="67" y="32" width="15" height="15" fill="#FF3333"/>
<rect x="83" y="19" width="15" height="28" fill="#0077FF"/>
<rect x="99" y="1" width="15" height="46" fill="#FFCC00"/>
<path d="M14.2168 78.018H17.3624V59.9502H12.7869C8.1855 59.9502 5.76779 62.3159 5.76779 65.7995C5.76779 68.5812 7.09363 70.219 9.45935 71.9088L5.35184 78.018H8.75743L13.3329 71.1809L11.7471 70.115C9.8233 68.8151 8.88741 67.8013 8.88741 65.6175C8.88741 63.6937 10.2393 62.3939 12.8129 62.3939H14.2168V78.018ZM55.5258 77.1341V74.6124C54.564 75.2624 52.9521 75.8343 51.4443 75.8343C49.1826 75.8343 48.3247 74.7684 48.1947 72.5847H55.6558V70.9469C55.6558 66.3974 53.6541 64.6816 50.5604 64.6816C46.7909 64.6816 44.9971 67.5673 44.9971 71.5188C44.9971 76.0683 47.2328 78.278 51.1844 78.278C53.1601 78.278 54.616 77.7581 55.5258 77.1341ZM74.8675 78.278C76.2974 78.278 77.3112 78.018 78.0651 77.4721V74.9504C77.2852 75.4963 76.3494 75.8343 75.0495 75.8343C72.8398 75.8343 71.9299 74.1185 71.9299 71.4148C71.9299 68.5812 73.0478 67.1253 75.0755 67.1253C76.2714 67.1253 77.4412 67.5413 78.0651 67.9312V65.3056C77.4152 64.9416 76.2714 64.6816 74.7375 64.6816C70.786 64.6816 68.7323 67.5153 68.7323 71.4928C68.7323 75.8603 70.734 78.278 74.8675 78.278ZM27.1892 64.9416V70.115H23.0557V64.9416H19.9621V78.018H23.0557V72.5587H27.1892V78.018H30.2829V64.9416H27.1892ZM44.2432 75.5743H42.8654V64.9416H33.8444V66.0595C33.8444 69.2571 33.6365 73.3906 32.5446 75.5743H31.5827V81.0077H34.4424V78.018H41.3835V81.0077H44.2432V75.5743ZM65.4047 78.018H68.9142L63.9488 70.9729L68.3163 64.9416H65.1967L60.8292 70.9729V64.9416H57.7356V78.018H60.8292V71.5968L65.4047 78.018ZM50.5084 67.1253C52.0423 67.1253 52.5102 68.3992 52.5102 70.037V70.297H48.1947C48.2727 68.2172 49.0266 67.1253 50.5084 67.1253ZM39.7717 75.5743H35.4042C36.2621 73.5986 36.4961 70.037 36.4961 67.7753V67.3853H39.7717V75.5743Z" fill="black"/>
<path d="M91.5651 78.018H94.2688L97.9603 64.3697V78.018H101.054V59.9502H96.8425L93.2029 73.3386L89.5633 59.9502H85.2998V78.018H87.8735V64.3697L91.5651 78.018Z" fill="black"/>
<path d="M113.664 77.1341V74.6124C112.702 75.2624 111.09 75.8343 109.582 75.8343C107.321 75.8343 106.463 74.7684 106.333 72.5847H113.794V70.9469C113.794 66.3974 111.792 64.6816 108.698 64.6816C104.929 64.6816 103.135 67.5673 103.135 71.5188C103.135 76.0683 105.371 78.278 109.322 78.278C111.298 78.278 112.754 77.7581 113.664 77.1341ZM108.646 67.1253C110.18 67.1253 110.648 68.3992 110.648 70.037V70.297H106.333C106.411 68.2172 107.165 67.1253 108.646 67.1253Z" fill="black"/>
<path d="M124.799 67.3853V64.9416H114.427V67.3853H118.066V78.018H121.16V67.3853H124.799Z" fill="black"/>
<path d="M129.49 64.9416H126.631V81.7876H129.724V76.4842C130.504 77.6541 131.648 78.278 132.974 78.278C135.99 78.278 138.069 75.8603 138.069 71.4668C138.069 67.0993 136.042 64.6816 133.13 64.6816C131.674 64.6816 130.478 65.3575 129.646 66.6314L129.49 64.9416ZM132.194 75.8343C130.556 75.8343 129.724 74.5085 129.724 71.4928C129.724 68.4512 130.608 67.1253 132.35 67.1253C134.04 67.1253 134.872 68.4512 134.872 71.4668C134.872 74.5085 133.988 75.8343 132.194 75.8343Z" fill="black"/>
<path d="M140.137 64.9416V78.018H142.815L147.598 69.933V78.018H150.614V64.9416H147.936L143.153 73.0266V64.9416H140.137Z" fill="black"/>
<path d="M160.881 78.018H164.39L159.425 70.9729L163.792 64.9416H160.673L156.305 70.9729V64.9416H153.212V78.018H156.305V71.5968L160.881 78.018Z" fill="black"/>
<path d="M174.919 69.1011C174.919 65.9295 173.307 64.7336 170.031 64.7336C167.977 64.7336 166.366 65.3835 165.43 65.9295V68.5032C166.262 67.8792 168.081 67.2033 169.667 67.2033C171.149 67.2033 171.825 67.7233 171.825 69.1271V69.855H171.331C166.6 69.855 164.494 71.4148 164.494 74.0665C164.494 76.7182 166.106 78.2 168.497 78.2C170.317 78.2 171.097 77.6021 171.695 76.9782H171.825C171.851 77.3161 171.955 77.7581 172.059 78.018H175.075C174.971 76.9522 174.919 75.8863 174.919 74.8204V69.1011ZM171.825 74.8984C171.435 75.4703 170.707 75.9383 169.615 75.9383C168.315 75.9383 167.665 75.1584 167.665 73.9885C167.665 72.4547 168.731 71.9088 171.383 71.9088H171.825V74.8984Z" fill="black"/>
</svg>
