<svg width="227" height="62" viewBox="0 0 227 62" fill="none" xmlns="http://www.w3.org/2000/svg">
<path d="M27.3529 58.3551C42.4596 58.3551 54.7059 46.1088 54.7059 31.0022C54.7059 16.0052 42.6366 3.82711 27.6813 3.65118H27.0246C12.0693 3.82711 0 16.0052 0 31.0022C0 46.1088 12.2463 58.3551 27.3529 58.3551Z" fill="url(#paint0_linear_394_67820)"/>
<path d="M0.861267 37.8382H17.0956V56.3666C9.13269 53.1433 3.03312 46.279 0.861267 37.8382Z" fill="url(#paint1_linear_394_67820)"/>
<path d="M0.861267 37.8382H17.0956V56.3666C9.13269 53.1433 3.03312 46.279 0.861267 37.8382Z" fill="url(#paint2_linear_394_67820)"/>
<path d="M17.0956 56.3666V30.7721C17.0956 27.2614 17.0956 25.5061 17.7664 24.1652C18.3564 22.9858 19.2979 22.0268 20.4559 21.4259C21.7724 20.7426 23.4958 20.7426 26.9426 20.7426H37.6103V56.3666C34.5387 57.6099 31.19 58.3115 27.6824 58.3529H27.0235C23.5159 58.3115 20.1671 57.6099 17.0956 56.3666Z" fill="url(#paint3_linear_394_67820)"/>
<path d="M37.6103 56.3666V5.63727C47.6346 9.69499 54.7059 19.5227 54.7059 31.0019C54.7059 42.4812 47.6346 52.3089 37.6103 56.3666Z" fill="url(#paint4_linear_394_67820)"/>
<path d="M80.7751 49.2382L73.1163 20.9005V49.2382H67.4269V11.2176H76.2345L84.0028 39.7193L91.7163 11.2176H100.579V49.2382H94.2328V20.9005L86.5739 49.2382H80.7751Z" fill="#1B202B"/>
<path d="M127.114 47.3782C126.166 48.0346 124.926 48.5999 123.394 49.074C121.862 49.5482 120.057 49.7852 117.978 49.7852C113.82 49.7852 110.611 48.6182 108.35 46.284C106.089 43.9134 104.958 40.3393 104.958 35.5617C104.958 32.7899 105.378 30.3282 106.216 28.1764C107.092 25.9882 108.386 24.274 110.1 23.034C111.851 21.794 114.039 21.174 116.665 21.174C118.853 21.174 120.75 21.6117 122.355 22.487C123.959 23.3623 125.199 24.7664 126.075 26.6993C126.95 28.5958 127.388 31.1487 127.388 34.3582V37.8046H111.687C111.833 40.1023 112.416 41.8164 113.438 42.947C114.459 44.0776 116.155 44.6429 118.525 44.6429C120.13 44.6429 121.698 44.3876 123.23 43.877C124.798 43.3664 126.093 42.7646 127.114 42.0717V47.3782ZM116.556 26.3164C113.492 26.3164 111.869 28.5411 111.687 32.9905H120.768V32.4434C120.768 30.7293 120.458 29.2887 119.838 28.1217C119.255 26.9182 118.16 26.3164 116.556 26.3164Z" fill="#1B202B"/>
<path d="M130.095 21.7211H133.542V15.7034H140.052V21.7211H146.89V26.8634H140.052V41.0323C140.052 42.0534 140.38 42.9105 141.036 43.6034C141.693 44.2964 142.696 44.6429 144.045 44.6429C145.139 44.6429 145.978 44.497 146.562 44.2052C147.145 43.9134 147.437 43.7676 147.437 43.7676V49.074C147.437 49.074 146.999 49.1834 146.124 49.4023C145.285 49.6576 144.063 49.7852 142.459 49.7852C139.468 49.7852 137.225 48.9646 135.73 47.3234C134.271 45.6458 133.542 43.5305 133.542 40.9776V26.8634H130.095V21.7211Z" fill="#1B202B"/>
<path d="M157.224 32.0605V49.2382H150.714V21.7211H157.06L157.224 27.1917H157.389C158.154 25.4046 159.267 23.9823 160.726 22.9246C162.184 21.8305 163.844 21.2287 165.704 21.1193V27.2464C163.698 27.137 162.002 27.5017 160.616 28.3405C159.267 29.1429 158.136 30.3829 157.224 32.0605Z" fill="#1B202B"/>
<path d="M172.48 18.3293C171.422 18.3293 170.529 17.9829 169.8 17.2899C169.07 16.597 168.705 15.667 168.705 14.4999C168.705 13.3329 169.07 12.4029 169.8 11.7099C170.529 11.017 171.422 10.6705 172.48 10.6705C173.538 10.6705 174.431 11.017 175.161 11.7099C175.927 12.4029 176.31 13.3329 176.31 14.4999C176.31 15.667 175.927 16.597 175.161 17.2899C174.431 17.9829 173.538 18.3293 172.48 18.3293ZM169.252 21.7211H175.762V49.2382H169.252V21.7211Z" fill="#1B202B"/>
<path d="M193.036 49.7852C188.696 49.7852 185.45 48.5634 183.298 46.1199C181.183 43.6399 180.125 40.1023 180.125 35.507C180.125 32.6987 180.599 30.2187 181.548 28.067C182.496 25.9152 183.9 24.2376 185.76 23.034C187.656 21.794 189.991 21.174 192.762 21.174C194.367 21.174 195.753 21.3017 196.92 21.557C198.124 21.7758 199.072 22.0858 199.765 22.487V28.0123C199.108 27.6111 198.215 27.2282 197.084 26.8634C195.954 26.4987 194.75 26.3164 193.474 26.3164C191.358 26.3164 189.717 27.0823 188.55 28.614C187.419 30.1093 186.854 32.3523 186.854 35.3429C186.854 38.1876 187.365 40.4487 188.386 42.1264C189.407 43.804 191.085 44.6429 193.419 44.6429C194.805 44.6429 196.008 44.4787 197.029 44.1505C198.051 43.8223 198.962 43.3664 199.765 42.7829V48.0893C198.196 49.2199 195.954 49.7852 193.036 49.7852Z" fill="#1B202B"/>
<path d="M224.44 30.474V42.5093C224.44 44.734 224.55 46.977 224.769 49.2382H218.423C218.168 48.5817 218.003 47.8523 217.93 47.0499H217.657C217.037 47.7064 216.235 48.3082 215.25 48.8552C214.302 49.3658 212.861 49.6211 210.928 49.6211C208.412 49.6211 206.369 48.8734 204.801 47.3782C203.269 45.8464 202.503 43.6946 202.503 40.9229C202.503 38.1146 203.652 35.9446 205.95 34.4129C208.284 32.8446 211.931 32.0605 216.891 32.0605H217.93V30.5287C217.93 29.0334 217.566 27.994 216.836 27.4105C216.107 26.7905 214.958 26.4805 213.39 26.4805C212.296 26.4805 211.165 26.6264 209.998 26.9182C208.831 27.1734 207.755 27.5199 206.77 27.9576C205.822 28.3587 205.056 28.7782 204.473 29.2158V23.7999C205.458 23.2164 206.77 22.6511 208.412 22.104C210.089 21.557 212.004 21.2834 214.156 21.2834C217.62 21.2834 220.192 21.9764 221.869 23.3623C223.583 24.7482 224.44 27.1187 224.44 30.474ZM217.93 42.6734V36.7105H217C214.229 36.7105 212.223 37.0387 210.983 37.6952C209.779 38.3152 209.178 39.4093 209.178 40.9776C209.178 42.1446 209.524 43.0929 210.217 43.8223C210.91 44.5152 211.931 44.8617 213.28 44.8617C214.448 44.8617 215.414 44.6429 216.18 44.2052C216.946 43.7676 217.529 43.257 217.93 42.6734Z" fill="#1B202B"/>
<defs>
<linearGradient id="paint0_linear_394_67820" x1="39.2059" y1="43.3105" x2="-5.92643" y2="-19.6013" gradientUnits="userSpaceOnUse">
<stop stop-color="#4643B9"/>
<stop offset="1" stop-color="#1E8AFF"/>
</linearGradient>
<linearGradient id="paint1_linear_394_67820" x1="3.15745e-05" y1="37.8382" x2="10.607" y2="60.4695" gradientUnits="userSpaceOnUse">
<stop offset="0.130208" stop-color="#FF455C"/>
<stop offset="1" stop-color="#FF1139"/>
</linearGradient>
<linearGradient id="paint2_linear_394_67820" x1="17.0956" y1="37.8382" x2="2.84665" y2="51.322" gradientUnits="userSpaceOnUse">
<stop stop-color="#FF2D4C"/>
<stop offset="1" stop-color="#FF2D4C" stop-opacity="0"/>
</linearGradient>
<linearGradient id="paint3_linear_394_67820" x1="143.261" y1="140.887" x2="155.924" y2="39.2124" gradientUnits="userSpaceOnUse">
<stop stop-color="#3C3BA0"/>
<stop offset="0.489583" stop-color="#1E8AFF"/>
<stop offset="1" stop-color="#00B2FF"/>
</linearGradient>
<linearGradient id="paint4_linear_394_67820" x1="37.6103" y1="6.4597" x2="85.675" y2="31.6858" gradientUnits="userSpaceOnUse">
<stop stop-color="#FFEA1A"/>
<stop offset="1" stop-color="#FFB800"/>
</linearGradient>
</defs>
</svg>
