<svg width="16" height="21" viewBox="0 0 16 21" fill="none" xmlns="http://www.w3.org/2000/svg">
<path d="M8.66308 0.5H7.33692C6.26834 0.5 5.84723 0.589348 5.41558 0.770177C4.98393 0.951007 4.62364 1.22332 4.33189 1.58924C4.04013 1.95517 3.83927 2.33592 3.54768 3.36394L3.36727 4H1.56222H1C0.447715 4 0 4.44772 0 5C0 5.55228 0.447715 6 1 6H1.50029L2.34446 18.6662C2.43199 19.9795 3.52275 21 4.83893 21H11.1611C12.4773 21 13.568 19.9795 13.6556 18.6663L14.5 6.00072V6H15C15.5523 6 16 5.55228 16 5C16 4.44772 15.5523 4 15 4H14.5H12.6327L12.4523 3.36394C12.1607 2.33592 11.9599 1.95517 11.6681 1.58924C11.3764 1.22332 11.0161 0.951007 10.5844 0.770177C10.1528 0.589348 9.73166 0.5 8.66308 0.5ZM10.5538 4H5.44617L5.47178 3.90969C5.675 3.19321 5.76106 3.0049 5.89568 2.83606C5.97812 2.73265 6.06638 2.66595 6.18836 2.61485C6.38753 2.53141 6.59218 2.5 7.33691 2.5H8.66308C9.40782 2.5 9.61247 2.53141 9.81164 2.61485C9.93362 2.66595 10.0219 2.73265 10.1043 2.83606C10.2389 3.0049 10.325 3.19321 10.5282 3.90969L10.5538 4ZM12.4956 6L11.66 18.5333C11.6425 18.7959 11.4244 19 11.1611 19H4.83893C4.57569 19 4.35754 18.7959 4.34004 18.5332L3.50473 6H12.4956ZM5.39966 8.63056L5.67188 16.4258C5.68826 16.895 6.08187 17.262 6.55103 17.2456C7.02018 17.2292 7.38723 16.8356 7.37084 16.3665L7.09863 8.57123C7.08225 8.10207 6.68864 7.73503 6.21948 7.75141C5.75033 7.76779 5.38328 8.1614 5.39966 8.63056ZM9.78103 7.75141C9.31187 7.73503 8.91826 8.10207 8.90188 8.57123L8.62966 16.3665C8.61328 16.8356 8.98033 17.2292 9.44948 17.2456C9.91864 17.262 10.3122 16.895 10.3286 16.4258L10.6008 8.63056C10.6172 8.1614 10.2502 7.76779 9.78103 7.75141Z" fill="#475A80" fill-opacity="0.5"/>
</svg>
