<svg width="147" height="32" viewBox="0 0 147 32" fill="none" xmlns="http://www.w3.org/2000/svg">
<path d="M16 32.0011C24.8366 32.0011 32 24.8376 32 16.0011C32 7.22862 24.9401 0.105102 16.1921 0.00219727H15.8079C7.05988 0.105102 0 7.22862 0 16.0011C0 24.8376 7.16344 32.0011 16 32.0011Z" fill="url(#paint0_linear_7664_26418)"/>
<path d="M0.503906 20H10.0001V30.8381C5.34224 28.9526 1.77432 24.9374 0.503906 20Z" fill="url(#paint1_linear_7664_26418)"/>
<path d="M0.503906 20H10.0001V30.8381C5.34224 28.9526 1.77432 24.9374 0.503906 20Z" fill="url(#paint2_linear_7664_26418)"/>
<path d="M10 30.8381V15.8667C10 13.8131 10 12.7864 10.3924 12.002C10.7375 11.3121 11.2883 10.7512 11.9656 10.3996C12.7357 10 13.7438 10 15.76 10H22V30.8381C20.2033 31.5654 18.2445 31.9758 16.1927 32H15.8073C13.7555 31.9758 11.7967 31.5654 10 30.8381Z" fill="url(#paint3_linear_7664_26418)"/>
<path d="M22 30.838V1.16406C27.8637 3.53761 32 9.28627 32 16.001C32 22.7158 27.8637 28.4644 22 30.838Z" fill="url(#paint4_linear_7664_26418)"/>
<path d="M48.8044 25.9984L44.6044 10.4584V25.9984H41.4844V5.14844H46.3144L50.5744 20.7784L54.8044 5.14844H59.6644V25.9984H56.1844V10.4584L51.9844 25.9984H48.8044Z" fill="#252A38"/>
<path d="M74.216 24.9784C73.696 25.3384 73.016 25.6484 72.176 25.9084C71.336 26.1684 70.346 26.2984 69.206 26.2984C66.926 26.2984 65.166 25.6584 63.926 24.3784C62.686 23.0784 62.066 21.1184 62.066 18.4984C62.066 16.9784 62.296 15.6284 62.756 14.4484C63.236 13.2484 63.946 12.3084 64.886 11.6284C65.846 10.9484 67.046 10.6084 68.486 10.6084C69.686 10.6084 70.726 10.8484 71.606 11.3284C72.486 11.8084 73.166 12.5784 73.646 13.6384C74.126 14.6784 74.366 16.0784 74.366 17.8384V19.7284H65.756C65.836 20.9884 66.156 21.9284 66.716 22.5484C67.276 23.1684 68.206 23.4784 69.506 23.4784C70.386 23.4784 71.246 23.3384 72.086 23.0584C72.946 22.7784 73.656 22.4484 74.216 22.0684V24.9784ZM68.426 13.4284C66.746 13.4284 65.856 14.6484 65.756 17.0884H70.736V16.7884C70.736 15.8484 70.566 15.0584 70.226 14.4184C69.906 13.7584 69.306 13.4284 68.426 13.4284Z" fill="#252A38"/>
<path d="M87.0661 13.7284H82.8661V25.9984H79.2961V13.7284H75.0961V10.9084H87.0661V13.7284Z" fill="#252A38"/>
<path d="M92.4797 10.9084L92.6597 12.8584C93.6197 11.3584 94.9597 10.6084 96.6797 10.6084C98.3597 10.6084 99.7297 11.2884 100.79 12.6484C101.85 13.9884 102.38 15.9184 102.38 18.4384C102.38 20.9784 101.83 22.9284 100.73 24.2884C99.6497 25.6284 98.2397 26.2984 96.4997 26.2984C94.9197 26.2984 93.6697 25.6084 92.7497 24.2284V30.3484H89.1797V10.9084H92.4797ZM95.5997 23.4784C96.6397 23.4784 97.4097 23.0784 97.9097 22.2784C98.4297 21.4784 98.6897 20.1984 98.6897 18.4384C98.6897 16.6984 98.4497 15.4284 97.9697 14.6284C97.4897 13.8284 96.7597 13.4284 95.7797 13.4284C94.7797 13.4284 94.0197 13.8284 93.4997 14.6284C92.9997 15.4284 92.7497 16.7084 92.7497 18.4684C92.7497 20.2084 92.9897 21.4784 93.4697 22.2784C93.9497 23.0784 94.6597 23.4784 95.5997 23.4784Z" fill="#252A38"/>
<path d="M104.766 10.9084H108.216V20.2384L113.676 10.9084H116.856V25.9984H113.406V16.6684L107.946 25.9984H104.766V10.9084Z" fill="#252A38"/>
<path d="M128.704 25.9984L123.424 18.7084V25.9984H119.854V10.9084H123.424V17.9884L128.464 10.9084H132.064L127.024 17.9884L132.754 25.9984H128.704Z" fill="#252A38"/>
<path d="M144.932 15.7084V22.3084C144.932 23.5284 144.992 24.7584 145.112 25.9984H141.632C141.492 25.6384 141.402 25.2384 141.362 24.7984H141.212C140.872 25.1584 140.432 25.4884 139.892 25.7884C139.372 26.0684 138.582 26.2084 137.522 26.2084C136.142 26.2084 135.022 25.7984 134.162 24.9784C133.322 24.1384 132.902 22.9584 132.902 21.4384C132.902 19.8984 133.532 18.7084 134.792 17.8684C136.072 17.0084 138.072 16.5784 140.792 16.5784H141.362V15.7384C141.362 14.9184 141.162 14.3484 140.762 14.0284C140.362 13.6884 139.732 13.5184 138.872 13.5184C138.272 13.5184 137.652 13.5984 137.012 13.7584C136.372 13.8984 135.782 14.0884 135.242 14.3284C134.722 14.5484 134.302 14.7784 133.982 15.0184V12.0484C134.522 11.7284 135.242 11.4184 136.142 11.1184C137.062 10.8184 138.112 10.6684 139.292 10.6684C141.192 10.6684 142.602 11.0484 143.522 11.8084C144.462 12.5684 144.932 13.8684 144.932 15.7084ZM141.362 22.3984V19.1284H140.852C139.332 19.1284 138.232 19.3084 137.552 19.6684C136.892 20.0084 136.562 20.6084 136.562 21.4684C136.562 22.1084 136.752 22.6284 137.132 23.0284C137.512 23.4084 138.072 23.5984 138.812 23.5984C139.452 23.5984 139.982 23.4784 140.402 23.2384C140.822 22.9984 141.142 22.7184 141.362 22.3984Z" fill="#252A38"/>
<defs>
<linearGradient id="paint0_linear_7664_26418" x1="22.9334" y1="23.2008" x2="-3.46664" y2="-13.5992" gradientUnits="userSpaceOnUse">
<stop stop-color="#4643B9"/>
<stop offset="1" stop-color="#1E8AFF"/>
</linearGradient>
<linearGradient id="paint1_linear_7664_26418" x1="0.000129804" y1="20" x2="6.20461" y2="33.2381" gradientUnits="userSpaceOnUse">
<stop offset="0.130208" stop-color="#FF455C"/>
<stop offset="1" stop-color="#FF1139"/>
</linearGradient>
<linearGradient id="paint2_linear_7664_26418" x1="10.0001" y1="20" x2="1.66525" y2="27.8873" gradientUnits="userSpaceOnUse">
<stop stop-color="#FF2D4C"/>
<stop offset="1" stop-color="#FF2D4C" stop-opacity="0"/>
</linearGradient>
<linearGradient id="paint3_linear_7664_26418" x1="83.8" y1="80.2778" x2="91.207" y2="20.8038" gradientUnits="userSpaceOnUse">
<stop stop-color="#3C3BA0"/>
<stop offset="0.489583" stop-color="#1E8AFF"/>
<stop offset="1" stop-color="#00B2FF"/>
</linearGradient>
<linearGradient id="paint4_linear_7664_26418" x1="22" y1="1.64514" x2="50.1153" y2="16.401" gradientUnits="userSpaceOnUse">
<stop stop-color="#FFEA1A"/>
<stop offset="1" stop-color="#FFB800"/>
</linearGradient>
</defs>
</svg>
