<svg width="16" height="16" viewBox="0 0 16 16" fill="none" xmlns="http://www.w3.org/2000/svg">
<path fill-rule="evenodd" clip-rule="evenodd" d="M1.25 8C1.25 11.7279 4.27208 14.75 8 14.75C11.7279 14.75 14.75 11.7279 14.75 8C14.75 4.27208 11.7279 1.25 8 1.25C4.27208 1.25 1.25 4.27208 1.25 8ZM8 0C3.58172 0 0 3.58172 0 8C0 12.4183 3.58172 16 8 16C12.4183 16 16 12.4183 16 8C16 3.58172 12.4183 0 8 0ZM5.68087 6.56429C5.51841 6.59609 5.3592 6.49018 5.34563 6.32519C5.26731 5.37269 5.69144 4.37367 6.51231 3.86063C7.01036 3.54935 7.6642 3.375 8.49981 3.375C9.34559 3.37584 10.2322 3.78429 10.7073 4.49706C10.9707 4.89206 11.1248 5.39063 11.1248 6C11.1248 7.10169 10.445 7.7388 9.60822 8.32452C9.07737 8.69612 8.72887 9.09381 8.64463 9.70074C8.62185 9.86485 8.4905 10 8.32481 10H7.67481C7.50913 10 7.37339 9.86538 7.38566 9.70015C7.42985 9.10488 7.60694 8.63227 7.87786 8.24395C8.13169 7.88012 8.47835 7.63508 8.82428 7.39055C9.11306 7.18642 9.40133 6.98266 9.63465 6.71044C9.97631 6.31184 9.95097 5.61598 9.66728 5.19044C9.16623 4.43886 7.86689 4.48807 7.17481 4.92062C6.77328 5.17158 6.5901 5.63194 6.58948 6.09101C6.58926 6.25355 6.48643 6.4066 6.32692 6.43783L5.68087 6.56429ZM8.0001 12.8C8.49715 12.8 8.9001 12.3971 8.9001 11.9C8.9001 11.4029 8.49715 11 8.0001 11C7.50304 11 7.1001 11.4029 7.1001 11.9C7.1001 12.3971 7.50304 12.8 8.0001 12.8Z" fill="#475A80" fill-opacity="0.5"/>
</svg>
