<svg width="180" height="82" viewBox="0 0 180 82" fill="none" xmlns="http://www.w3.org/2000/svg">
<rect x="67" y="32" width="15" height="15" fill="#FF3333"/>
<rect x="83" y="19" width="15" height="28" fill="#0077FF"/>
<rect x="99" y="1" width="15" height="46" fill="#FFCC00"/>
<path d="M20.3728 78V74.9323C20.3728 72.6186 20.0868 71.9427 19.2029 70.0189L14.5755 59.9321H11.2999L17.2271 72.8266V78H20.3728ZM22.4265 68.6671L26.2741 59.9321H23.0764L19.2289 68.6671H22.4265ZM55.2866 78.2599C56.7424 78.2599 57.9383 77.584 58.7702 76.3102L58.9262 78H61.7858V59.9321H58.6922V66.4573C57.9123 65.2875 56.7684 64.6636 55.4166 64.6636C52.4269 64.6636 50.3472 67.1853 50.3472 71.5527C50.3472 75.8682 52.3749 78.2599 55.2866 78.2599ZM74.2903 77.1161V74.5944C73.3284 75.2443 71.7166 75.8162 70.2088 75.8162C67.9471 75.8162 67.0892 74.7504 66.9592 72.5666H74.4203V70.9288C74.4203 66.3794 72.4185 64.6636 69.3249 64.6636C65.5554 64.6636 63.7616 67.5492 63.7616 71.5007C63.7616 76.0502 65.9973 78.2599 69.9488 78.2599C71.9246 78.2599 73.3804 77.74 74.2903 77.1161ZM35.373 69.083C35.373 65.9114 33.7612 64.7156 30.4856 64.7156C28.4578 64.7156 26.82 65.5735 25.8841 66.2494V68.9271C26.872 68.1212 28.3798 67.1853 30.1216 67.1853C31.6034 67.1853 32.2793 67.7052 32.2793 69.109V69.9409H31.7854C27.054 69.9409 24.9482 71.4748 24.9482 74.2044C24.9482 76.7261 26.56 78.1819 28.9517 78.1819C30.7715 78.1819 31.5514 77.584 32.1494 76.9601H32.2793C32.3053 77.2981 32.4093 77.74 32.5133 78H35.529C35.425 76.9341 35.373 75.8682 35.373 74.8024V69.083ZM40.9883 68.6151C41.5602 67.9132 42.4701 67.3152 43.588 67.3152C44.6799 67.3152 45.1738 67.7832 45.1738 68.7711V78H48.2674V68.4591C48.2674 65.8594 47.2276 64.7156 44.7059 64.7156C42.8601 64.7156 41.7682 65.3915 41.1443 66.0154H40.9883L40.9103 64.9235H37.8947V78H40.9883V68.6151ZM83.8052 78H87.2888L83.0253 71.2668L86.7168 64.9235H83.6232L81.3875 68.8751L78.8918 64.9235H75.4082L79.3597 71.1888L75.2522 78H78.3978L81.0235 73.5805L83.8052 78ZM56.1965 67.1073C57.8603 67.1073 58.6922 68.4331 58.6922 71.4488C58.6922 74.4904 57.8083 75.8162 56.0665 75.8162C54.3767 75.8162 53.5448 74.5164 53.5448 71.5527C53.5448 68.4591 54.4287 67.1073 56.1965 67.1073ZM69.2729 67.1073C70.8067 67.1073 71.2747 68.3811 71.2747 70.0189V70.2789H66.9592C67.0372 68.1991 67.7911 67.1073 69.2729 67.1073ZM32.2793 74.8803C31.8894 75.4523 31.1615 75.9202 30.0696 75.9202C28.7698 75.9202 28.1198 75.1663 28.1198 74.0224C28.1198 72.5146 29.1857 71.9947 31.8374 71.9947H32.2793V74.8803Z" fill="black"/>
<path d="M101.565 77.9999H104.269L107.96 64.3516V77.9999H111.054V59.9321H106.842L103.203 73.3205L99.5633 59.9321H95.2998V77.9999H97.8735V64.3516L101.565 77.9999Z" fill="black"/>
<path d="M123.664 77.116V74.5943C122.702 75.2443 121.09 75.8162 119.582 75.8162C117.321 75.8162 116.463 74.7503 116.333 72.5666H123.794V70.9288C123.794 66.3793 121.792 64.6635 118.698 64.6635C114.929 64.6635 113.135 67.5492 113.135 71.5007C113.135 76.0502 115.371 78.2599 119.322 78.2599C121.298 78.2599 122.754 77.74 123.664 77.116ZM118.646 67.1072C120.18 67.1072 120.648 68.3811 120.648 70.0189V70.2789H116.333C116.411 68.1991 117.165 67.1072 118.646 67.1072Z" fill="black"/>
<path d="M124.827 64.9235V67.3672H126.464V74.0744C126.464 76.5181 127.842 78.2599 130.702 78.2599C132.21 78.2599 133.068 77.9219 133.068 77.9219V75.4002C133.068 75.4002 132.496 75.8162 131.456 75.8162C130.156 75.8162 129.558 75.0623 129.558 74.1004V67.3672H132.808V64.9235H129.558V62.0638H126.464V64.9235H124.827Z" fill="black"/>
<path d="M137.719 69.8369C138.577 68.2511 139.851 67.4452 141.748 67.5492V64.6375C139.981 64.7415 138.525 65.8074 137.797 67.5232H137.719L137.641 64.9235H134.625V77.9999H137.719V69.8369Z" fill="black"/>
<path d="M144.969 63.3117C145.982 63.3117 146.788 62.6098 146.788 61.4919C146.788 60.4 145.982 59.6721 144.969 59.6721C143.955 59.6721 143.175 60.4 143.175 61.4919C143.175 62.6098 143.955 63.3117 144.969 63.3117ZM143.435 64.9235V77.9999H146.528V64.9235H143.435Z" fill="black"/>
<path d="M154.737 78.2599C156.167 78.2599 157.181 77.9999 157.934 77.454V74.9323C157.155 75.4782 156.219 75.8162 154.919 75.8162C152.709 75.8162 151.799 74.1004 151.799 71.3967C151.799 68.5631 152.917 67.1072 154.945 67.1072C156.141 67.1072 157.311 67.5232 157.934 67.9131V65.2874C157.285 64.9235 156.141 64.6635 154.607 64.6635C150.655 64.6635 148.602 67.4972 148.602 71.4747C148.602 75.8422 150.603 78.2599 154.737 78.2599Z" fill="black"/>
<path d="M169.661 69.083C169.661 65.9114 168.049 64.7155 164.773 64.7155C162.72 64.7155 161.108 65.3654 160.172 65.9114V68.4851C161.004 67.8611 162.824 67.1852 164.409 67.1852C165.891 67.1852 166.567 67.7052 166.567 69.109V69.8369H166.073C161.342 69.8369 159.236 71.3967 159.236 74.0484C159.236 76.7001 160.848 78.1819 163.239 78.1819C165.059 78.1819 165.839 77.584 166.437 76.9601H166.567C166.593 77.298 166.697 77.74 166.801 77.9999H169.817C169.713 76.9341 169.661 75.8682 169.661 74.8023V69.083ZM166.567 74.8803C166.177 75.4522 165.449 75.9202 164.357 75.9202C163.057 75.9202 162.408 75.1403 162.408 73.9704C162.408 72.4366 163.473 71.8907 166.125 71.8907H166.567V74.8803Z" fill="black"/>
</svg>
